<mxfile host="app.diagrams.net" modified="2024-05-06T10:12:48.087Z" agent="Mozilla/5.0 (Windows NT 10.0; Win64; x64) AppleWebKit/537.36 (KHTML, like Gecko) Chrome/124.0.0.0 Safari/537.36 Edg/124.0.0.0" etag="-FnT_UwwR-TO30Usj6D_" version="24.3.1" type="github">
  <diagram name="Page-1" id="bldviGOM2PhAeHIemhQr">
    <mxGraphModel dx="1426" dy="785" grid="1" gridSize="10" guides="1" tooltips="1" connect="1" arrows="1" fold="1" page="1" pageScale="1" pageWidth="850" pageHeight="1100" math="0" shadow="0">
      <root>
        <mxCell id="0" />
        <mxCell id="1" parent="0" />
        <mxCell id="jSoYXtQaay7fsIpfsQkB-22" value="" style="endArrow=classic;html=1;rounded=0;entryX=0;entryY=0.5;entryDx=0;entryDy=0;" parent="1" target="x5C6FpIDevCYcziMVME_-2" edge="1">
          <mxGeometry relative="1" as="geometry">
            <mxPoint x="330" y="529.09" as="sourcePoint" />
            <mxPoint x="430" y="529.09" as="targetPoint" />
          </mxGeometry>
        </mxCell>
        <mxCell id="x5C6FpIDevCYcziMVME_-1" value="" style="verticalLabelPosition=bottom;html=1;verticalAlign=top;align=center;shape=mxgraph.azure.laptop;pointerEvents=1;fillColor=#f5f5f5;fontColor=#333333;strokeColor=#666666;" parent="1" vertex="1">
          <mxGeometry x="502.5" y="445" width="75" height="50" as="geometry" />
        </mxCell>
        <mxCell id="x5C6FpIDevCYcziMVME_-2" value="Sirene 4" style="rounded=1;whiteSpace=wrap;html=1;fillColor=#dae8fc;fontFamily=Work Sans;strokeColor=#6c8ebf;fontSource=https%3A%2F%2Ffonts.googleapis.com%2Fcss%3Ffamily%3DWork%2BSans;" parent="1" vertex="1">
          <mxGeometry x="480" y="500" width="120" height="60" as="geometry" />
        </mxCell>
        <mxCell id="x5C6FpIDevCYcziMVME_-23" value="&lt;div&gt;Déclaration&amp;nbsp;&lt;/div&gt;" style="rounded=1;whiteSpace=wrap;html=1;fillColor=#f8cecc;strokeColor=#b85450;fontFamily=Work Sans;fontSource=https%3A%2F%2Ffonts.googleapis.com%2Fcss%3Ffamily%3DWork%2BSans;" parent="1" vertex="1">
          <mxGeometry x="30" y="500" width="120" height="60" as="geometry" />
        </mxCell>
        <mxCell id="x5C6FpIDevCYcziMVME_-27" value="" style="sketch=0;pointerEvents=1;shadow=0;dashed=0;html=1;strokeColor=#666666;fillColor=#f5f5f5;labelPosition=center;verticalLabelPosition=bottom;verticalAlign=top;outlineConnect=0;align=center;shape=mxgraph.office.users.approver;fontColor=#333333;" parent="1" vertex="1">
          <mxGeometry x="70" y="440" width="59" height="55" as="geometry" />
        </mxCell>
        <mxCell id="S_g0ONeS2pqSJaHyuwxj-12" value="&lt;font face=&quot;Work sans&quot;&gt;&lt;i&gt;&lt;b&gt;Déclarant&lt;/b&gt;&lt;/i&gt;&lt;/font&gt;" style="text;html=1;align=center;verticalAlign=middle;resizable=0;points=[];autosize=1;strokeColor=none;fillColor=none;" parent="1" vertex="1">
          <mxGeometry x="50" y="410" width="80" height="30" as="geometry" />
        </mxCell>
        <mxCell id="S_g0ONeS2pqSJaHyuwxj-15" value="Guichet unique" style="rounded=1;whiteSpace=wrap;html=1;fillColor=#a0522d;fontFamily=Work Sans;strokeColor=#6D1F00;fontSource=https%3A%2F%2Ffonts.googleapis.com%2Fcss%3Ffamily%3DWork%2BSans;fontColor=#ffffff;" parent="1" vertex="1">
          <mxGeometry x="210" y="500" width="120" height="60" as="geometry" />
        </mxCell>
        <mxCell id="S_g0ONeS2pqSJaHyuwxj-17" value="" style="shape=image;verticalLabelPosition=bottom;labelBackgroundColor=default;verticalAlign=top;aspect=fixed;imageAspect=0;image=data:image/png,iVBORw0KGgoAAAANSUhEUgAAAUAAAACvCAYAAACM9QdJAAAABGdBTUEAALGPC/xhBQAAACBjSFJNAAB6JgAAgIQAAPoAAACA6AAAdTAAAOpgAAA6mAAAF3CculE8AAAABmJLR0QA/wD/AP+gvaeTAAAxHElEQVR42u2de3ybZfn/P9f9JG3X7giTDYQxxrYmTfPkySLi5FSBef4iChNRlHFGv3IUBZSfggKCB0BQBEXk+xURGAhfERQFrIrg0Cynpmm3gsMNB+y8bj0kee7r90fSNknTc7p26fV+ra/XkjzP/Tz36XNf130kt2kxxk5HIhqugSBMAdymZQNQYwuFuxLRyDRJzYlFlSgcW5JSEEYCSZ0RARSEKQpLnREBFIQpawBKnSknAdSSlIIgdWZ/FMASDIKwtGaCMCIPWCzAySKAyRLY85KZgjCSGiN9gGUlgGLOC8JILEDpA5w0AtgtLrAg7GMLUPoAy0cAJTMFYcSI0TAJcADYAqA6Y8jBAGHmiO0/RpckpSCMCKkzk8MSFwRhJHi93jnFvtdap+Lx+B5JIUEQBEEQBEEQBEEQBEEQBEEQBGFCkVHgElE4MtjZ2dnR1tbWLSkjCJNYAN1e39VjDYQVUi2RyG0jfrbPemTMMWDuSkQjnxuvBFoUCMyalk57WWMJEx0J0GIAh4D5QCbMJeBAAMYgQexFZq7lW2BsBfFGAr3KjDZSvP6gOXNaGxsb0+P1/nU+/8UafCwBFSUtOIwUCANO+WAgBdBAv6egdf5vRJoZu/qKFHb2hUU7lNJdKeBf6yKR/6AkG3iMHrdp3QjC0mFYF3sxyFJTB+sro9HoXpGhicMBoltKUBn2Arht5OKFlSWoiiWdd+W2rCWw8X4QjgEQQMpeokHUZytzb+kepvlck/1bmLmBMiEQwEx4a/vOvW7Tv5agXwHTGgfpP0ej0bdLFyP2E+MzpS44jOHI0CAXEA36FReEo5lgZMSnA8BaAq/RhD8Y6XRjPB5P7uN6cyIYy8cQewCAbdvXZhtIYcIEUIDbXPYeIv4MM38EGkfs446BGoCPY9BxICAFZbtN628Eelzp1BNNTU0bxxK41ghSeXV0VAM4lkHHEuNL2nC21/msx7Wmn7TEQi/vTxGx7RrpghIBnBiWer2LlHKcRcxnAXoJ86R5NQPA8Qw+3laOO9ym7wUmfLclEvnDaFw/DeMvRnkvO53BjFVEvMptWq+AcUMiFn5GqrYwHNQUiy+5fL73u73WswYZbcR8A4Alk/l9ATqJmH7v8lkhl+k/EyMcuFoXC7aCsXmK5O+7QXjaZfqfd/l8S6V6CyKAADweT4Xb9H/ObVphYnoWhPdjPxsBJ4aPwA+5vdYLbssaiWgzgx+bUq0c+ERiirpN6/LJnM+6xhYXWARwrPBgbrxymdbZ2qhoA/h/AJhlULsboDnq8vmvGW7lVsS/nIJluxLA7W6v9bhpmnJmtVCuAkhFp3e4660VLp+1loAHAD6szGycKmL+ttv0PbR48eLKoa5ujkbXALR2SpZwwsdTUM+7XO8+UKq7UI4usGpoaOi1Aheb5qFu03oGCn8ghq/Ma/ennNXTnx1oe6YCR/hbU7icH00VyecWBQKzJpULrLW4wCKAY6e9vb0CANw+3xlOqCiAD02hPDwhTcZvPB7PoBOdE7Hw/wH89ylc1q3KlP2bQCDglGovlJUAdmj9DrfX+gWYHgYwZwrm47HacP5wKBvQ0Ma5AE/lnYiP70jZ35ksL1NtyyCICGApsPklEM6a4nl5gctrXTjYBU1NaxMAfWmKp9NlHtM8Uaq+UD4CCBwiWQkQ4RaPx3PAoK5wNHw3gb8/lZNJQ90znMEjQQRQ2L+Yow3n14e6qDka+TIBN2CCNxWYQJY4ptVcIMVFEAEsP77gsqyFQ1zDzdHw9SA+E5mdaqaeGQj66sKFDVUT+Q4yCiwCKJQeJ5iGtT1YIhJ5RNkpF4PvBNA+xRTw4OoZO0+T4jK1kd1girMXhAgYYWaEFWiTzfSGg423lerqbm8/sHPDhsa80dTFRx89s3JP6iBtYC5D1yomk8HLQPwegPappUHMnwHwzeFcG4/HtwO4rLa29jqjoup0KLWMwfOYeQaBHGA4QJhRcFsl9Zwl3WNSZrb8KpyKMxOD75U4oTDhQgATtkqGeZpYgBPdDrpNqxT9QHsT0fD0UTxbT5a6AODvTPR7Jn5+umG8EgwGU6UI+NDly6fN3Nv1Xib+ODNWEnDQPjHtiY+ORyKvTLYCVzhpu7uiwkAyOTMj3M7pDoeutJnnkcYSEK0AcAIKxLaU+W6zUbcuFmwZyU1u03oJGHo/wCHzyHYeHI//402RIbEAJ4o4gPsMnX58rPvuDcSml1/uBPA8gOcbGhou37J916k281eIcNR4RsyGOhHApBPAWCy2o8jXWwe4/HbTNGvSZJzLzFcAOKLUBoCh9CoA14gUiABOHbMX9JRN+vbWSORP+/K52a3vHwPwmMf0n26Dbyfg0PFxg8dXYPcV2S3j71q4sOGn1TN33MigK1DKvmvGiokSQF0lgyATzdQaBCH8UREf3RwNnbKvxa+f6RkNPZaeVukh0FPjE1VdV05Zt2FDY1dzNHKVAp0BoIRnqLA1rLXUggjgfgtjMzE+mYiE3z+Z+sXa1qzZ3RwNncqMn5c+ynRwWfZZREOPEfE5pawDaRgniBSIAJar+D1aaaCuORZePUnfUM8/cPaFBJTaIp116PLl08oxS5sjkQeZSjh6S2iYkIyXeYAigONIkpkvScTCZ4TD4Z2T+UUbGxvTrHARgJKeIzxrd/IdZZu73RWXASjViYAekQIRwHJiDxP/V0ss8sP95YUT4fB6APeXMkzbka4q14Lb0vLKNgD3lSi4I0UKRADLhR1K4cTsKWr7V2bYdG+JfayyXvBvaKNUDdyCofZTHA9YXGARwBLToYhPiYfD/9gfXz4eD0UA7CpdiM6Kci68TU3BV5GZyzl2LXU6Dxc5EAHcn2EFOjMeiby4n8djfckSxNBVU6AMl+QMYLJp8b5+cc0sFqAIYIkqO9NP4tHQb8ogKiXbncVR5i4wABCjRNa+ni9yIAK4v5JKk31jmVTp3aULy1FR7gXYJh0tifwpyGRoEcD91fzDH9qi0U3lYcliZ+nCKn8LsLW2tg3AmDeuIKh9LoBVMggiAliSiq7oxbLJEdKlmwuouPy3fV+92gZ4WwlKkViAIoD7rdm0uWz0j8guYXAVU6QYj7nflFhcYBHA/dcFTpVNjnDpFvozU9XUKMa8Y+zJvu8FkLlSXGARwLFjECXLxgJkLp0FyJgSJ58RqHPsYWCmyIEI4H6JDbu7XDJEE5Vwl2yeEi4wl+Cwd81TpbtAKD8LEI6ycYEVc+lcYKWmyNm3NGYBJIJznzd2FTIKLAJYEtJl4wJrpWQQZOSpVor8d4ociADupwaA9AEWDUtrOfVv+EhaiQDun9i6pFbThMIlnAZDYtVMagFkWQssAlgaA5C4XDKklBagJhKrZvgkJQlEAIUJtwBZLMCRx7QUQt8tpU8EcP+MBNm6bKoyl3AlCE2Zfq1SHJw+AgEU11UEUBgnE7B0K0GmjAXIKMHhTyMZSCtNl4vsCC0CWKKaXj59gCCULC5aTxEBJMwYu4bqvftct2UQRASwFNi20pKVRS3AmikS1QUlSKsRbKhQGuEqp8E7EUBh8nmGxGW/vjUQCDgBjH03Z6KtYgGKAO6nHnC6jFrS0lkFCjSj3AtwezJ5GACjBKm+VeRABFCYcDEvXR8gA2UvgAYMVynC0SMSwNI0UhVcIRagCGAJIqGkD3AADgdAZV6CTyhNOPz6SDoXpGiJAE4eUtKZPACzlnq9R5R1DBkNpQjGYTvapLiIAAoTji6pmDuUaijXlKqvr58HYFkpmtC5c2eMwAIs0TxAGQQRASwFtkqLCzxgJaOryrWhSyvHpSjFJgaE1xsbG0cwAV2ESwRQGB/7T5fcnXe7vNb55ZZOpmnWEHBxaVoJGuHZwqXJI+2UlSAigCWgzCaUcunTB993W9aSciq4KajvAjigNCmuXxEpEAEUASxfpkPjuXIRQY/pPx3A50vX4qi/j9RklCIlAiiMi5hjvMR8ATQaay3rmP05fVw+3wc0+OclDDJt6GRwIlxgGQQRARTGqXINwCFK4y9u07p9USAwa39KlcWLF1fWeX03ENNTAKaXMOiX4vH4Hil3UxPZMXhqNnqXV6bs89ymdb/W6v7WprUxAJOyG8GyrNndGmcDuIIzE7tLzW+lSIgACpPGBdb7yjOaAeAypfRlbtP3JqD+DNYhRUYENjXH6xa9gdWr9/lZKw0NDY43t+32KeJjGPyBbo2TMY6n29lsPDVReS0usAigMDlkdz7AZ4DoDA0NGIC7dX0apn8zwK8T8G8m2gjNG6H4P9CqXTN2QtntMIx2dHS0t7a2tg/H+vR4jjrIVl3vIDbmk8HzWOMdUDQfGgtBcL21fWctESr3kTkaWhcLtoxCuqjcVxiKAAoTgwZPkrrlAPgwAIdxxlzJ1HkmgBiKst60zUDlNLhNCwB2DBBWTY8Vp5ECwQAI4B4dYUyQntCPJjKBmZ2ioiKAQhkxZz961x3VTvWrie3uSMn0rQlGRoGFqQnzrcFgsEMsQBFAYVJ5wDKpex/waqpz7x2SDIII4GSDIAI4vtjQ+HxbW9uEnwNcIaPAIoCCsI+5NtEU/qMkgyACOCkNQHGBxw3Gg4lo+LuSEIIIoLjAU038nkh17plU24KxU1xgEUBhPNkrSQAA/It5B87+5GTo9xNEAIV9ZUwSXQtg+5S2+4DvJqKRVSPb8XkfvZyWDVFFAIXxQ6MNTB8HMBUtn61MfEoiGv4KgEl5ZAIpJd0dIoBCXqUo8aFIiVjoLwr0SQCdUycN6Smb2GqJRCb1Ti9iAYoACv2sttKPAsejod9ohRVgbC7z1Atq4hObo6FT1kUib0x6/1zmAYoACvuG1nD4b5yq8AL0CFBWI81JEFYrqA8louF3t0Yif5LcFoaLbIYwhWhpeWUbgE+5TfM7TOpKYrwPwCH7WzwYeFsBzzHoWU46n87GSxBEAPd7D3gfnLiTiEbXAjgLANx+/+HKJjeTfTiYDteEBcQ8n4nmEmMuwAcCVDVBSrcbhI1gbCBwDAohmznSGo2uxyQd2BAXWARQ2I9IhEKvA3h9sGtM06zpNoxZirmGbTXToPQsG6hRrKo04ETOGR1EZID1zN5KTqSIaFZBzW8Hczp7QxczOhSwUyveRWzsVgbv7lTqjdeCwV2SQ4IIoDChRKPRvZBJ1UKZCuBzJQina5T3leLZYKXK51QvIoashpvkriv+QYQxlzktjcrEVzdJgsmFy/SfSeCHSpK5TB9ujoV+J6kqCMWRaTCCIIgACoIgiAAKEwpJB6AgiAAKgiCIAE45E1CLBSgIIoCCIAgigIIgCCKAU8IDlkEQQRABFARBEAEUBEEQAZwiaDkXWBBEAAVBEEQABUEQRACnBETiAgvCvsKBW372vCTDOHHNeSftb69c5/OdxUxzE9HwHT3fubxeL5Tj49Dc1hILF92qy2NZlmb6FEE/0hyJhHJ/q/X7DzFsXsWgAMDTAOxkopaWSOib2XuP0kynDfVurDna8/w607oZxG3Nkcj9AODy+b9OQPXgAXB7Ihq+CQA85rIPauhjE9HwdQOnhf9iaH1wcyzyjUw6WKtIkWtIqyKNX8Xjochg17hM61oimmVr9cC6WLBlgGvOBvOMlljkhwOF09DQ4Hhr245LiMiY5jTuDgaDHbm/u03rMhAdPGTaEt/TEg5vcJvL3gPiU1U6eWM8Hu+352EgEKjuTOvzwPweZswFIQmmt7XSDw50IFWdz3cWQ9Uz9Astkcgfil1T6/O9T0F9IBEJfRWDHHfgMv2ngfnACtJPRqPRtwe6zm1alxFQ0xwN3zy4AAInilKNE8yEEVp09j44E2Twd8apAJYAuKPPTTBczHwDCOzy+v/VEgu93O82Gx4QXw1CE4BeAazz+j/ENj/KgBPgNQzsJGApMb8fK1fehNWrbZv5AMVYycBsZPaorAZQma0IPdvi7yZFqb7XxFeY8UcA9wOAYj6bgTk5rzQrcxl253z3NoCbMvfr4wG+AsB1A2cffwYgE8A3MulAXmY+HcCM7CU979sNoAOAJmCXVvTMMFL6C2A+1KD0uwCcXNw9o9OYcDCAAQXwzR07TiGi2xhAZzq9vSc9cvgEmL05sZqWPeOlE5mNjNMEtDM4e59eBsbVhmHcBuRv+rrUG3B1pOwnAdQCSACIAagG8UrFdK7btO5L1C65GKtX2/3LFJ9GoFWLjz56aduaNbv7xVXjGBBfjZUrv4bVq4vG1eMJLNCwHwHBSEMdAuD6gQUd54AxF8CQAigIw5ZHIr4DwPLCVpoVKXC+1nu93jlp4l8B2KgNOrk1FPpP3gXRMACgJRJ5FsCRPV/X19cfZivHv4n4gh4Lbyiao+Ej86wO03oV4GRzNOIuVeSbY6EvAfhSjoV4CTPfqezUIfF4fPsoOz1OcnutUxOx8JOjuht0cbbBWcqg8woFMBENn5BnGfn8t4D5kkQ0XDOS5ywNBOYaKbsRwEwQfyoRiTzSJ0yeA7Ry/hiE8+ta1m1tBq4dIJh5FZ1dXwdwVZGCZQzV8GuHvgCMDgAJDZyHlSu/1U9spQ9QGEd+BuDdLtP6bBH31OhXYMlxXMYSo1v6iV8Z4XQ6R3tC3XYAQSJ8f+HChhGfvOfy+ZaCcTIz7gT4YTDe6/H768alryxtfxfAPAZ9Nlf8ACAej29PxMJnAvw8E13lsSxrgPbzYQZdutQb6NeNoJgH1aJAIOAE6/OZ6SEivouAQ12trR8ea7xEACcbk3g3GAX9MEB/Jca3a2trZ+T9pooVYHtPVh0PLucs21NZOSoBZCDNGpcycET1zJ1Xjjg/tLoIwO6aCuNRpeheANCazy91/Dwez3RmfBLg51uioccHMtCY9RUADK25aFyU7bgawB5F6dv7pYVSg2pRZzr9cYDmK6Xv3V1d/TiAHQR1oQigsM+w2bAB+3IQ5qmq6q/l95dR/7Jk2y8CeBVEN9T5fGdNwtamJN2t1Z2do3LDiGG3NIVfYsJDDFy71Od753DvPXT58mlMvArAQ8FgsCMeDv8DoLVgfHbx4sWVpUwlrZzHA6gmpp8Pdl1LLBYDEAdT0T7NXTMrthDRNwj0QZfP99H8tOjvQRT4yBcDeKU5EgltevnlTiL6JYAP1dfXHyYCKOwbC5BsnYhG14LpATBfXl8fOLJPSvoX4Hg8nrTZ+CiADcz0C7dpPVlrmkdMhrhwpg/TGOIyA4QhxW17Tc3oXGDK9KNq8NUA4GD6znBvnb6n8wwABxDxT3O+vg/AXGdNzaklbSYUH5ZxTtSaYVy+FoQZA/140JxZPwYoRky3eTyeij59owG1qL5+mZuBBgC9caU07gNgaDLGZPGKAE42m2QS7wajtbIzrpfjawCStrK/3/cbnMXuWRcLtnTunm0R8G0AH1FQcZfP/3WsXGlMcDqnswI4oBXIDAcwtABWbdky2j5AGwDWRSJvALiFgTM9Pt+xfSI98IQAInwewD9zpxx1O9VDADqQGQwpXb5DzQEAp1NvHcblOwAM2J/Z2NiYZsWXAliiDedlfWk9sAVoK30RgD3KTj3c17iGIgD+qYnOHUtZEgEUingbxUWYlNKZwvePN8F8E4CPueutFVlBcQ4U3oYNjV3N0fBXlcJRAGLEfIO7Zf3qiSx/TGQDoIaGBmMQkXEAnB4qrFmzZulRa0uWzt2zv0/AvzTTnb3pwsXFuc7n8wN4NxHfl/v9a8HgLoAfB+OksVraXTkDO8TYAgCdWs8Zxq01GOKc8JZwuBGgR8C4zuM5aj4AKC5uAR66fPk0AJ8F8HCReYk/J+BQ9/r1HxQBLBcmwWYIxMUnoiqle62hVOfeOwC8CoXbGxoaHAA5hwo3Hg6HE7VL3gvgf0D4uMv0nzFhAsgZYdu8efO0wV1gGvIA9GAwOLo+wBwB3LChsYuJrwLgd3mt87IX0ACW6YUAoJkW1Pl8F7m81oU9fwyaBkApMs4dS/o4u7p0zgM3Z17HWDaMW5eA0T7URYZOfRkEw1apmzMNUvFR4BkdXacDOABARW48XV7rwt4J3jZGbfGKAAqDWiZ5roiter9va2vrBuMqAJ63tu28CATnsEJevdqudhoXANhG4PdNVAQV0Q4AoKqqwUaoZ4CxbbTpNaQIF7jXiUjkCYCfB+HGRYHALHD/eboej2c6QJ/JCuhXmekeItzb+wecnhWtc8biGuZO7TE4HctoFJ862D1LA4G5AB8NhSH7CpuamjaC6FYinO2xrKMGdIGZe0Z6z86LJ+FeMF+XbSg+Wl9fP08EUCiRdVS8QhuGzq+wsfCTDHoBhBuYadijcbt27VLZfqLpE6bwbL+Rtbgbiv2eHV1cAHDTeIhfpt6yXcTtvoyAAyrT9ldBmN2/P8x5JoAZCvQxZvUuZvUuIl5ms31kzx8yq13e6Vq37kOjfbfdhsF5YgV6EYRPDTbPUCXTXweoisC/Gs4z2qurvgfg31rjB0RkFHH1PQCOBfM1PXEt/APoTABOWzk+N5p4ykqQSQahcD3FBLzDAH2A6bTqX9k5fTnICBFx/zlZK1caDVu2UGNjY14/mqN6+pUAaojo5YmKY43T+XxH0t5MhJvrfL5/5A4mmKZZk4TxAIENghqqMo96JQIz9UvP5kgk7vL6fkygK7PiGi3Im4sA/CUeDf1moHAX+/0/cNp8FWUGQ347Kgtwz568d9OKr1Uaf9Y2/2ap1/v+dbHYa7mv5fL5rybmSxj0QiISfmw4z9j08sudHtP/ZQ1eDeDwIulzAYAd7dOr79z08sudA/VAuE3rWgDnAfgeRjiIKAIoFKuaA/QBpvt93xKLxdym9RMAn+/Xgq9bZ77F9Ce3z/oDGOsAdCLj9p4E8N87ds3+6UTFMBgMdtSZ5hnM6rcMWuM2rcfACEPRASnmMwi8kJnvSsTCQ20WMmoLEJmBmCL9Y+nrteE8E8Dc3O9d3mUBQAcU6GODBdsWCm1xm/6nwXyKOxA4OBEMbh7pq1UWTO5uDYf/VufzXchM9xik4nU+62GA1rDWc0F0KpgDAELaqc4YSZrEo6HH3F6rEYQ8S/zQ5cunYW/n5wDcPYj49fQl/ASEH3p8vmPikciLOb/MdPv8t/Qv3X2baogACvmFg1QCOt81Y9BbAD8HwyjauW07ja87UnoRgw2w6q1syaqqVx1d3b+FxlIiHANgD0D/BnB5qmPvPRs2RLqLhldZmUbK/qcG3hik0D+viEID/8x/Y6ZBR3Cbo9G/ejwBLzv0l8H6ZE10EjG3E/ASmL6QiIV/N3gzwRuhEByl+/siEXYXFYV4fHud17qcCasArOu7iZeC6f54LPTUkC6+4ttIczXS6eUAft2XLvptYnpx4HTTGwkqsXv3AXYR6/R+l9f7D0XGNcxYAfDHQJRmxgYiXNdeM+22YmKlSUWJedZA04WUpsu1wd8DAKxezQBQ0969BIqf5WTl7UPFtbvCeLAyZZ9ja1qQ07e3hoEtWWEuTPs9ff+/9f5zpNqPE1ef+/OR3uL2+w/nNH+gFI93cPp3mf4bQRAEQRAEQRAEQRAEQRAEQZh6kCSBIAgTxWLTPNQJ1TtYSEQtzZHQZRjL9KIi1Pmse5mxCEAKwJbUtMpL2tas2S3TYARBmDCcpK4B956J8h9WOL/U4uexrKO0Ru5E/Qt6ziWRpXCCIEwIpmnWgJFZwsbYrRQ+kgiFXi/1c3J3qGbg5kQ0fJ+4wELx1tITWJBSSUcF814iSnZ2dna0tbV1D/f+RYHALEcyeeCQhZIo2RaNbhpOmG6//3A7nTYAQBmGbgmHN4zIzfL736HS6bxNOnVn5xsjiVdvWEcfPVN1dMzVRMlpzHvb2w/s3LChsWuo+1yWtVDbtjIqKjodyWQXAMRcrt2jONRHuf3+wzidnqmUcrBS2xOh0MaSW02eo+anVFe14XDYjnR6NwDsmD69a8hVGVksy5pt2zZ1K1Wd3e8QAFBfXz8vSVSTsb4c80jxSgJqNFOj5nTfJgoVFbvXBYNbvV7vHK0rZiiVLDoJv1gaWpY1u8O2D+j5bECtAtGBIHrTsNVDSUpmlssp1S0usJAvTIZ+0YBxmJ1tGp3V0+E2rQ4AOwHsYOBVAl6BwqOJcHh94f1VKX02k/GDoZ5jAHEA9cN6KVv/3SBjfuYFsQvov0nAoG6WzS+AjLxnGdOmfxHAj0aaPo6Ors8RGXcZyJwnOW3mTrhNX1cmfWgTM78Mhd8Wnn9LGjGDjOlI2Uhn1/27W9cDpoVs2m5m4JE9NdO+U0xkAoGAsyNpXwHCF2Dz4URGZtG4zXCb1h4AT9lsfLPwjOHMyXxGwYl13AVQJ4CtYKxjwur5B8z+Ze6abW2kfmrA+Chs7n3fGXs74c68bweArUT4ve6u+GpLyyvbcsWnW2NHtwZABgzGGwAO7c1K5bzbAH+i1x7L/AOBLzRy9kPgZPouAJfaZFzGhv0NPcDm3TlpCBDdmoiErunWuMAgo//u2sywlf1NoycsRlBcYKGwlBQrE9UADgHgIeAUADdCI1Fn+r432btRauv97yoqtJllZiWCqgCaD+BdRHQJMT1b5/PfNYIAZgNwE3D9jL2dvytMU3cgcHBHyv4nCLeiyKYByOyqc6ZBdtBjLsvbHDSVmqaKvy/mAFgCwkcIeODN7buezd2ifgiqASxgxoVUkQy6XO8+sO95qcHLA/GwyosC9o44FzKbsY7MnJYKL+TrX16Z0MisRe0oZsQx6Esun/+6IULcQ8Br/f9o076IjjJ4IKF7l9s060vwiD0A/g0gmW9s8BddXv8JA9yTAvAqCg4ez3KC2+s/MdfyQ8p+AoBZcN16ZHaKybUWqzX0ox5PoHdNbHpaP0FKE/BaYZ4S+EQ2nJcOIi8bGdiEzCHwuRxOFcmreyNWVTWopnB++QIDm3rKBEBrAQQBBJno1ezvO3LLTTbtem/P/Y3BHQOU6d3FyiADb4gLLBQ2o7kFtCsRDdcCILdlLSamk5j5egDz+hp0/mqt33/fIOf+/ro5Gj57IqKycGFDFXjnp3Mitxbgvl2NSZ0L4MoxPYTxZCIW/qzX651jk/EUA8f0Bk98KoA/F7nr7UQ0vBgA3Ja1hBmrieHrey24ATwHAJ1J+1QQjs65txuMTyRi4WcyfWrL3LbSfwTQc6LcDHbYXwNwUaZLIqVs5cgVnDcT0fCRDQ0Njre27/wegMtyfjsDmS2lirQkfFJLOLy+trZ2hqqs+hFAn82xvN7V1wWSUqlB7CoqMLoMgz4QD4WaB7o+EQ3/AEBvl4rbtNoA9BzGZTdHw0cOWaQVHm6OhC8SC1AYrVfAiXB4fXMkdA8UjkO+e1Jp2PzpyRiRabN2fCzr6vVE7NvI3V2FcdYI3L5BicViOxj0y4KqN+R5yIlweD0BzxZYSbv6gqCCQ+j5wR7xA4CmprUJJr644P6VmWMKALuysmgdb2xsTBta3VtozQ31vq2tre3E/fZI7N0ByLYr1SjK14QhFqAwogKaCIfXu03fr3MtAGZyD2aI1Xmtlf0NCmNtU1Pw1XGNiaZzc+Y57K1yqmc60vZRYHwl+907YFScAuCxUjyOWbsp76hh3j5QN8NSr3eRgmMeESxw3mHmew2dyhFE9hR0ofU7mLxl6dLfuVvX70HfDttztmzZ5QEQsdNpZQww2SNt2G7KP3hu+4CFQuvD6ny+Cq3Jx8TfKIjPo71hVqSVsgczmFnlHnWi0/oDdV7LU3idnez8fWtra3tp8gWLipVBJv2qCKAw4haaQYm8akO6epDLj2fC8f20SenPZ/vBxoX6+vrDbMLJOb7XM8FgsMNVb/0fqV4BhA193pgEkOB3mdZ3CTgKwAkFKfn0APccbMB4tcjmxTvB+ExTU9NbvXpXYJVppPv3na5ebcO0NgLobYhsw14AIFJh23kuMAGz3D7/LcR6MTP9V4E4PTtgWwL1PLjfUfIMopuao6H/67MAbaUGc4GZVJ4eE91WbAtnqqqqBdBeouJwMueWhb4M+rG4wEKRbpohFJIKLJucIw2Z2Z4MkbDJODtXzEljNQC0NIX/DuCtvsjSiuz5H8NLHOpn33gIuKpQ/Aj8eCIcfnqEr31zrnuLjELmzf9wcEXHAG+WLrAUBzoQaQaYr2bQaQBy3f+3yOm4ZYTv+3QiEvp/I2xex33uMdPwy6BYgEL/xn7oEpZnlZDqG1FkIFVgJPydmfptDGto+uu4ijjRqnxTBafU+ayTsy5R7sRlwzacqwB8a5hhJ4f4/Q0m+sm8ObNvbh7cjH4ChOOQv+39tbW1tfcUuH7tAHoncadQ9GxeAvidBabZDgBIGoY2Bj8lIwXQU6z4Sy2DbZ3PeAJEiwH25nz7UbfXf3wiFvpLb2IahobNg5WuvNOOGbgejH7PTTodb43ehVEpzrOu6a/M/GC/Mqi4WQRQ6F/UByEQCFR3puwzCirbpr7Cx6n887xpXUss/JN9GQG3138cwEcWSMRZA502RcyrANyI4R2okyqI+wvE+DYzd7DSm1uj0dcB6JbBw9iViIU/sSgQmFWZtp8B473Z7+cYVdWrANyV896xnN9BBj4M4J+5gbnqreXInJ3bKzPJChXONE6KCwRpK5jOVGRrKLW9yjDWBYPBjiFjbeDqRDi03u2zbs3pQwURrgLQK4BKKYZtD2JBE+eKk2HQ6sFGgUdJKv+ZnEhEi5dBcYGFYQtgff0y996UfoqBRbnepmHTQzklKjUJIvDpEV6/yGVZJwzz2lSBq7sxEQs919IUfqk1Gv0XhrckLQkArwWDuxh8Q174XHC6Xs4AQ1asv+KxLCu3QSKF2wrCf+G1YHAXADiSDl3w/l2JWOi5eDT6QjwcDg9L/HKVparyJuTMX2Twh2tN84heQevu1oOnH+txz38efhkUC1AYTACdbtP6KTKrQOpt6AXUv7Td3NS0NjGQQABYXuez7i32oIPmzP7vwiMzh8G0YuExoyMRDV8RCAScHSn7tFyxYeB64oKKp+iUPMtKYxWAxpG6wEToHkUa96ZRSyTynNv0bwS4px+y3m2a9YlotAkAdHfn/apy2iXom/tWozW/7DatB0Foz8Z1Qa71p4lv7nu/Ti5lNW9bs2a32/Q9gsyRmxkjDupsANcDQJfTqZ02D7uB1Zqvr/NZOwBAM3ZT30l58UQk9ItSWIDMOG6gMigCKBSWztyJEU4A5w94KdFNiWj4G4UWUoFILmHGkmIBbNu27RoAO0b4ihXMuLDI9/8BcEVnUp8MyulXIzzTEgl/u/DiOtP/TwY/l/PV6bW1tZcMNfXCAFL5SkrJ0SVznwYQ+EEGru0L0jgDQBOQmXfnNs1PgtWfQJiZvaAKwPlFbHVmoq+1RsJ/6vliGII0irdX/wvi8wos7uuH4wKD8/sAwVjJvVmFvlOxGU8A+MUoy3BhGXQzwy0usDAkNEQ/GANvA/hfrZWVHQHkwSykQZvpoutUR81eAGDiTxXUt6KVaJpT/QXAlpyvaoyKqtNH7F5pJMee6Ly64CF5fayJaHQtwz4W4OcHcrEJ3ALGJ1oiobyRXKUUl7qMJGKhF5F/ZOmSWtOsBQBnV5ceooDxeJdhA+ICC6NEQX+aWeVuZ5Uk0u02O3Yxpbe3RqMbMIhIGun0S1pVrMiW9RoAFVBM0JTv+ijeNX9+9a6WlmHoA+HLzJSmgik2RMSasTP7YU9GO9SdBP0EA+8AQIad/m2xMIPBYMpdb32GCUfkxH7IeYmkk2tYVaxgwizATsJQLcPTOL5Ug5xZqyNvoX9zJBLymOZJNtFspckAeHpDQ4Mjt3ugJRaLATjZ4wkssJV9LAiHg8hJjA3KRiQeD0eKPXfdokU7PK2vfkiTPYs1zRruJgMK6kc2697zh5OG8Xae56rVhx2KF2rSBrHabU+bthkA4vH4TpfP90ECZhd7nlL4fzqNO4mK7uiTZNDejDtMbw+Qktcx88xsuSgqtimnajSSekW2NZlOgFMTOcA8Q2q4IAiCIAiCIAiCIAiCIAiCIAiCIAiCIAiCIAiCIJQPci6wkIfba50KcG3PZ7vC8bN1weBWIHOmq03GqvwSRNtyD5rOhOE/GdCBns+pzr139JzB6/b5zoDGwv4lkdqJsYtBG5VOro3H48UODILHs2yxVn1rfQm0qTkWztuK3uPzHas1jiGiWUyktI3HWptCeTuoeL3eOTaMD2uCBcLBBFRAUzsU7wIolIiEfglAuyxrIdn5KzMGxKCmRDj89FKf752GxllFK5xSu7RmDVBrSyz0VxSs7HB5/csJum8DWeKne9YFuwOBg5FMf244r6J0+vZ4PJ4EAJfPdyVpOHt+08muuwdb8lfn81/MWs/qjRY7Hhts926XaZ1NzPOHFBvixuZodM1kKu+yEkQoLKRnZTfLzBT+VOppAFsBQBvGIWDqt2lmnWnGcgs2KXyMmb7Y83n69On3ovc0MToPhBXFnp1ZhMzQhjPtMq0nQfy1lkhkXe41WumloL53YMJLAPIEkDVWgOjrDGSOITM4hJwtpNym//Np8HcATM8+skdssv9neDyeR+LxeJLSWAJFw9soVON/ATytbDocCkXvYebsrsoMt+lfq2F/ujUabe0VLuL3Meim3utBbyK7Llil04dpGt67pNPpu5FdlkhM3wT1HRnJVVUPYpDdlpn5KyDqXSFjG3YTBtm9m4BLQBQY6p2Y6WoAk0oAZS2wUAKM/C2dwGP1LBwEnE5M/c65ZVWw2y+PrBHPWrh3o+/8jGJVtavHehpfeJmCengSZqieKiVXLEBh7NUY/AFXvfXelqbwS6PohHkSoNbsOs33ArByfp2uoR9dbJp1bdHoJgBQrNL5u/3CGNG7El9E+T0/QQbuUowOBg4iwjsZ5MipIRvAdGuOGXMB8jYf5V+A1H8yUdFrB3js60z8RWJawKDTCHxizm+Wy+dbWmjpDi/dsYmYzin2W6tpdqC1dbRZOtZjDb4CplARtVkvAiiUp+ts4HoA7+/x24btgjD9Mh4NPdbXn+Q/jaAfzG75BAAznKSuRPb8Xs1IFxzMMyIBJNBh+S6Qui4eXfv7ga5PhMPrAVzT5z5bp+YKIIF/1BwJDeXW7WmJRHo2ZbinzvTFGeTKicDsUaU50JGIhZ4r+mMsNPq8BGsew/AAgdY2x0LP7w/lVlxgYSy235s55sgKj8937FhDbImGHgep7xWYOh/pFQul7aEacSYyCoQi12TcnO/r6UddPv817kDg4H2RYh6PZzaDDsp1t5FOt02qXGUSF1gQhuFP3g7CTT3lyGZ1A4CTMMbZBQz9YoGbusTj8VRk++UK++b6WYDEbHCOmUisunLE8ffEnHtE4gxi/jZS9o1u03oWxPclIpEnSpxSC92m9UeAKjW4Ls+CZHV3PB7fPspwj3SbVrF7f5WIhv97DCacHlv+8RNu0+q307dW+K/WcPhvYgEK5eH2Kt7A3LdrL4FPdHn9J2CMgyCc3dsvz8M2jIybmFbdQwmgJspr2LXmzp7/1zjUnQR6qshjDQAfBtOv3ab/caxcaZQwqWoAnAzwcQAO7LO0+JLmWOiqMYRrAJhT+EeE6jG+71gtwBnF3gtp6p5sZVgEUBgLFUz6W7lWGVH+IT+jqtW6t/+vF9u2OwAgpfIFkIp4Map36/jsZ6NPAIPBYKo5GjpFgVYS6FkU7fDnT9StW3f+uDcgoGpg/HdIHsUzSn22cwrADjL0bhFAoXzQcLZGo/8qOPf3BAIaxhQs86ICqdjYMzFaGXZXQc02itT2g/JqszY6C6+JR0OPNUdDHzR0+ggQ3QogXRDIihKm1OsK6kMA7s63dHFJIBBwjiHcVx1sH9D/T39xIi1AYpyq7FRlIhqm7F9FIho+YDQj3eON9AEKY2k+KzIWm7pZG/Y5QOZz7gjnSPF4jprPlLom32Thvm3tuyraUZHXDViVbch1nyeOo/IsSgd3DvS8pqamjQCuqfP5NzDzj/v0j+aVMKX2ZEeaf+82raUZdxgg4NDOpP1JFEzkHomlFovFdpQ6W5mhaSydGER79s08ShFAYWIVsAIA4vHgv92m9TMAnx+Fb3ZInWkeDVYLAF6mKbkKoJxlVdxlaMf3ez61tLyyze21NoPQM2o7z2VaT5BBl7ZXVb09Y2/n1wC8M9f9sjudb/V8yE6ErlcKjU6ipnA4vNMdCBysk9rKrfQE2jEuSca4HYST+6xA/uIYBHB0lV4r0+VdNh8ADErP0mwopXRXPBJ5MaNfBRagxmKXd1m/lR4triPDWL3a3p9LsAigMAY/STv7Onn0zU6ocwFUjkwP+AeAyo4b9zM7bJC6sN86VMJ3ANze9xGnwOZTZuwtauj9tKXllW05VuvJYPpvzUA3A27TAlI2Ci0ezfzr8UizeQfO/sNb23duBXqO7qT3jHYiNIClbtMq3r/HtGKgOYJM/EzP4WwaCiCGZnod6F2jXegC30FFZsZY69fPCSN7KFV+nj7nNq3+hiH48eZo5PTJVIalD1AYswUIAG3R6CYi+mkJLaVmMH2w2OHYiWj4TiI8MIxQftu5e/aXCsId6mQwZuB7LbHwA+ORYo2NjWkw/SZfGNRnJ1OukiyFE6YqDHoNQLDns6GdvWaVzdyhQL2/EfPWPDm0U9+xleM9haZcZ2ennfOA9chbSgYQsFuDuwnYAsY6ZnqhpSn8MgYevdTNkfA5LtP8NaDOJ2AhAdMZmEngrRrYQIQHEpHIo4VhEPEfmelwZAZKZiIzRUUT+G2GijDjxy2x0J8HkYc4wHtyXPi9/dNQ7SHoYE4EXyu45FcAfD3Jg9ydVJg3gyjnXt5W8KzgsJomlTviSiGAh5oasznnOQlk+lYHpTdfGYnhzPzMlq1Jxf8HFJ6Bsy3uDzYAAAAldEVYdGRhdGU6Y3JlYXRlADIwMTktMDMtMzBUMTg6Mjg6NTIrMDA6MDB3FhRBAAAAJXRFWHRkYXRlOm1vZGlmeQAyMDE5LTAzLTMwVDE4OjI4OjUyKzAwOjAwBkus/QAAAABJRU5ErkJggg==;" parent="1" vertex="1">
          <mxGeometry x="217.43" y="422.5" width="132.57" height="72.5" as="geometry" />
        </mxCell>
        <mxCell id="jSoYXtQaay7fsIpfsQkB-1" style="rounded=0;orthogonalLoop=1;jettySize=auto;html=1;exitX=1;exitY=0.5;exitDx=0;exitDy=0;entryX=0;entryY=0.5;entryDx=0;entryDy=0;" parent="1" edge="1">
          <mxGeometry relative="1" as="geometry">
            <mxPoint x="210" y="529.09" as="targetPoint" />
            <mxPoint x="150" y="529.59" as="sourcePoint" />
          </mxGeometry>
        </mxCell>
        <mxCell id="jSoYXtQaay7fsIpfsQkB-8" value="&lt;div&gt;Gestion du répertoire&lt;/div&gt;" style="rounded=1;whiteSpace=wrap;html=1;fillColor=#f8cecc;strokeColor=#b85450;fontFamily=Work Sans;fontSource=https%3A%2F%2Ffonts.googleapis.com%2Fcss%3Ffamily%3DWork%2BSans;" parent="1" vertex="1">
          <mxGeometry x="480" y="310" width="120" height="60" as="geometry" />
        </mxCell>
        <mxCell id="jSoYXtQaay7fsIpfsQkB-9" value="" style="sketch=0;pointerEvents=1;shadow=0;dashed=0;html=1;strokeColor=#666666;fillColor=#f5f5f5;labelPosition=center;verticalLabelPosition=bottom;verticalAlign=top;outlineConnect=0;align=center;shape=mxgraph.office.users.approver;fontColor=#333333;" parent="1" vertex="1">
          <mxGeometry x="520" y="250" width="59" height="55" as="geometry" />
        </mxCell>
        <mxCell id="jSoYXtQaay7fsIpfsQkB-10" value="&lt;font face=&quot;Work sans&quot;&gt;&lt;i&gt;&lt;b&gt;Gestionnaire&lt;/b&gt;&lt;/i&gt;&lt;/font&gt;" style="text;html=1;align=center;verticalAlign=middle;resizable=0;points=[];autosize=1;strokeColor=none;fillColor=none;" parent="1" vertex="1">
          <mxGeometry x="490" y="220" width="100" height="30" as="geometry" />
        </mxCell>
        <mxCell id="jSoYXtQaay7fsIpfsQkB-14" value="" style="verticalLabelPosition=bottom;verticalAlign=top;html=1;shape=mxgraph.basic.layered_rect;dx=10;outlineConnect=0;whiteSpace=wrap;fillColor=#d5e8d4;strokeColor=#82b366;" parent="1" vertex="1">
          <mxGeometry x="365" y="500" width="55" height="50" as="geometry" />
        </mxCell>
        <mxCell id="jSoYXtQaay7fsIpfsQkB-16" value="&lt;font face=&quot;Work sans&quot;&gt;&lt;i&gt;&lt;b&gt;Liasses&lt;/b&gt;&lt;/i&gt;&lt;/font&gt;" style="text;html=1;align=center;verticalAlign=middle;resizable=0;points=[];autosize=1;strokeColor=none;fillColor=none;" parent="1" vertex="1">
          <mxGeometry x="357.5" y="470" width="70" height="30" as="geometry" />
        </mxCell>
        <mxCell id="jSoYXtQaay7fsIpfsQkB-18" value="" style="edgeStyle=elbowEdgeStyle;elbow=vertical;endArrow=classic;html=1;curved=0;rounded=0;endSize=8;startSize=8;entryX=0.5;entryY=1;entryDx=0;entryDy=0;exitX=0.5;exitY=1;exitDx=0;exitDy=0;" parent="1" source="x5C6FpIDevCYcziMVME_-2" target="S_g0ONeS2pqSJaHyuwxj-15" edge="1">
          <mxGeometry width="50" height="50" relative="1" as="geometry">
            <mxPoint x="720" y="560" as="sourcePoint" />
            <mxPoint x="670" y="640" as="targetPoint" />
            <Array as="points">
              <mxPoint x="490" y="640" />
            </Array>
          </mxGeometry>
        </mxCell>
        <mxCell id="jSoYXtQaay7fsIpfsQkB-20" value="" style="verticalLabelPosition=bottom;verticalAlign=top;html=1;shape=mxgraph.basic.layered_rect;dx=10;outlineConnect=0;whiteSpace=wrap;fillColor=#d5e8d4;strokeColor=#82b366;" parent="1" vertex="1">
          <mxGeometry x="365" y="610" width="55" height="50" as="geometry" />
        </mxCell>
        <mxCell id="jSoYXtQaay7fsIpfsQkB-21" value="&lt;i style=&quot;font-family: &amp;quot;Work sans&amp;quot;;&quot;&gt;&lt;b&gt;SIREN, APE, ...&lt;/b&gt;&lt;/i&gt;" style="text;html=1;align=center;verticalAlign=middle;resizable=0;points=[];autosize=1;strokeColor=none;fillColor=none;" parent="1" vertex="1">
          <mxGeometry x="345" y="580" width="110" height="30" as="geometry" />
        </mxCell>
        <mxCell id="jSoYXtQaay7fsIpfsQkB-26" value="" style="endArrow=classic;startArrow=classic;html=1;rounded=0;" parent="1" edge="1">
          <mxGeometry width="50" height="50" relative="1" as="geometry">
            <mxPoint x="539.09" y="430" as="sourcePoint" />
            <mxPoint x="539.09" y="380" as="targetPoint" />
          </mxGeometry>
        </mxCell>
        <mxCell id="jSoYXtQaay7fsIpfsQkB-30" value="&lt;font&gt;Bdd&lt;/font&gt;&lt;div&gt;&lt;font&gt;Sirene 4&lt;/font&gt;&lt;/div&gt;" style="strokeWidth=2;html=1;shape=mxgraph.flowchart.database;whiteSpace=wrap;fillColor=#ffe6cc;strokeColor=#d79b00;fontStyle=1;fontFamily=Work Sans;fontSource=https%3A%2F%2Ffonts.googleapis.com%2Fcss%3Ffamily%3DWork%2BSans;" parent="1" vertex="1">
          <mxGeometry x="680" y="445" width="100" height="150" as="geometry" />
        </mxCell>
        <mxCell id="jSoYXtQaay7fsIpfsQkB-35" value="" style="endArrow=classic;html=1;rounded=0;entryX=0;entryY=0.556;entryDx=0;entryDy=0;entryPerimeter=0;" parent="1" target="jSoYXtQaay7fsIpfsQkB-30" edge="1">
          <mxGeometry relative="1" as="geometry">
            <mxPoint x="600" y="529.09" as="sourcePoint" />
            <mxPoint x="710" y="530" as="targetPoint" />
          </mxGeometry>
        </mxCell>
        <mxCell id="jSoYXtQaay7fsIpfsQkB-37" value="&lt;i style=&quot;font-family: &amp;quot;Work sans&amp;quot;;&quot;&gt;&lt;b&gt;XML&lt;/b&gt;&lt;/i&gt;" style="text;html=1;align=center;verticalAlign=middle;resizable=0;points=[];autosize=1;strokeColor=none;fillColor=none;" parent="1" vertex="1">
          <mxGeometry x="365" y="620" width="50" height="30" as="geometry" />
        </mxCell>
        <mxCell id="jSoYXtQaay7fsIpfsQkB-38" value="&lt;i style=&quot;font-family: &amp;quot;Work sans&amp;quot;;&quot;&gt;&lt;b&gt;XML&lt;/b&gt;&lt;/i&gt;" style="text;html=1;align=center;verticalAlign=middle;resizable=0;points=[];autosize=1;strokeColor=none;fillColor=none;" parent="1" vertex="1">
          <mxGeometry x="365" y="508.75" width="50" height="30" as="geometry" />
        </mxCell>
      </root>
    </mxGraphModel>
  </diagram>
</mxfile>
